<svg width="44" height="44" viewBox="0 0 44 44" fill="none" xmlns="http://www.w3.org/2000/svg">
<rect width="44" height="44" rx="22" fill="#FFE0E3"/>
<path d="M14.0111 30.918H29.9889C30.2484 30.9179 30.5035 30.8506 30.7291 30.7224C30.9548 30.5943 31.1434 30.4099 31.2765 30.1871C31.4095 29.9643 31.4825 29.7108 31.4883 29.4513C31.494 29.1919 31.4324 28.9354 31.3094 28.7069L23.3209 13.8709C22.7542 12.8191 21.2458 12.8191 20.6791 13.8709L12.6906 28.7069C12.5676 28.9354 12.506 29.1919 12.5117 29.4513C12.5175 29.7108 12.5905 29.9643 12.7235 30.1871C12.8566 30.4099 13.0452 30.5943 13.2708 30.7224C13.4965 30.8506 13.7516 30.9179 14.0111 30.918Z" stroke="#DE3737" stroke-width="2" stroke-linecap="round" stroke-linejoin="round"/>
<path d="M21.7309 19.1589L22 24.8777L22.2686 19.1613C22.2702 19.1247 22.2644 19.0882 22.2515 19.054C22.2385 19.0198 22.2188 18.9886 22.1934 18.9622C22.168 18.9359 22.1375 18.915 22.1037 18.9009C22.07 18.8868 22.0337 18.8797 21.9971 18.88C21.9612 18.8804 21.9257 18.8879 21.8927 18.9022C21.8597 18.9165 21.83 18.9373 21.8052 18.9633C21.7803 18.9893 21.761 19.02 21.7482 19.0536C21.7355 19.0872 21.7296 19.123 21.7309 19.1589Z" stroke="#DE3737" stroke-width="2" stroke-linecap="round" stroke-linejoin="round"/>
<path d="M22 28.6211C21.8146 28.6211 21.6333 28.5661 21.4792 28.4631C21.325 28.3601 21.2048 28.2137 21.1339 28.0424C21.0629 27.8711 21.0443 27.6826 21.0805 27.5007C21.1167 27.3188 21.206 27.1518 21.3371 27.0207C21.4682 26.8896 21.6352 26.8003 21.8171 26.7641C21.999 26.7279 22.1875 26.7465 22.3588 26.8175C22.5301 26.8884 22.6765 27.0086 22.7795 27.1627C22.8825 27.3169 22.9375 27.4982 22.9375 27.6836C22.9375 27.9322 22.8387 28.1707 22.6629 28.3465C22.4871 28.5223 22.2486 28.6211 22 28.6211Z" fill="#DE3737"/>
</svg>
