<svg width="44" height="44" viewBox="0 0 44 44" fill="none" xmlns="http://www.w3.org/2000/svg">
<rect width="44" height="44" rx="22" fill="#FFFACB"/>
<path d="M22.25 22.9243V17.7854M22.25 26.0076H22.2603M31.5 21.8965C31.5 23.1112 31.2607 24.314 30.7959 25.4363C30.331 26.5586 29.6497 27.5783 28.7907 28.4372C27.9318 29.2962 26.9121 29.9775 25.7898 30.4424C24.6676 30.9072 23.4647 31.1465 22.25 31.1465C21.0353 31.1465 19.8324 30.9072 18.7102 30.4424C17.5879 29.9775 16.5682 29.2962 15.7093 28.4372C14.8503 27.5783 14.169 26.5586 13.7041 25.4363C13.2393 24.314 13 23.1112 13 21.8965C13 19.4432 13.9746 17.0905 15.7093 15.3557C17.444 13.621 19.7967 12.6465 22.25 12.6465C24.7033 12.6465 27.056 13.621 28.7907 15.3557C30.5254 17.0905 31.5 19.4432 31.5 21.8965Z" stroke="#E1CF36" stroke-width="2" stroke-linecap="round" stroke-linejoin="round"/>
</svg>
